# xmcd
#
# Track frame offsets:
#	150
#	21138
#	39587
#	67867
#	81252
#	107903
#	128139
#	143675
#	161593
#	175820
#	191969
#	206947
#	216767
#	231144
# Disc length: 3344 seconds
# Revision: 1
# Processed by: cddbd v1.5.1PL2 Copyright (c) Steve Scherf et al.
#
# Submitted via: libkcddb 0.21
#
DISCID=c80d0e0e
DTITLE=Henry Gray and the Cats - Live in Paris
DYEAR=2003
DGENRE=Blues
TTITLE0=It Hurts Me Too
TTITLE1=Sweet Home Chicago
TTITLE2=Out on The Road
TTITLE3=Tutti Frutti
TTITLE4=Rock Me
TTITLE5=Showers of Rain
TTITLE6=Fannie Mae
TTITLE7=Key to the Highway
TTITLE8=Stagger Lee
TTITLE9=The Twist
TTITLE10=Boogie in the Dark
TTITLE11=Lawdy Miss Clawdy
TTITLE12=What'd I Say
TTITLE13=Shake a Hand
EXTD=Piano Blues
EXTT0=
EXTT1=
EXTT2=
EXTT3=
EXTT4=
EXTT5=
EXTT6=
EXTT7=
EXTT8=
EXTT9=
EXTT10=
EXTT11=
EXTT12=
EXTT13=
PLAYORDER=
